<?xml version="1.0" encoding="utf-8"?>
<!-- Generator: Adobe Illustrator 16.0.0, SVG Export Plug-In . SVG Version: 6.00 Build 0)  -->
<!DOCTYPE svg PUBLIC "-//W3C//DTD SVG 1.1//EN" "http://www.w3.org/Graphics/SVG/1.1/DTD/svg11.dtd">
<svg version="1.1" id="Layer_1" xmlns="http://www.w3.org/2000/svg" xmlns:xlink="http://www.w3.org/1999/xlink" x="0px" y="0px"
	 width="760.388px" height="156.094px" viewBox="0 0 760.388 156.094" style="enable-background:new 0 0 760.388 156.094;"
	 xml:space="preserve">
<style type="text/css">
<![CDATA[
	.st0{fill:#1D1E1E;}
]]>
</style>
<g>
	<path class="st0" d="M136.354,78.558h14.97c5.807,0,10.731,0.805,14.771,2.412c4.039,1.609,7.326,3.685,9.86,6.229
		s4.368,5.436,5.504,8.676c1.135,3.24,1.703,6.469,1.703,9.684c0,3.937-0.779,7.477-2.336,10.62
		c-1.559,3.145-3.657,5.821-6.297,8.028c-2.641,2.208-5.716,3.9-9.227,5.076c-3.513,1.177-7.221,1.764-11.128,1.764h-17.82V78.558z
		 M152.67,122.695c3.01,0,5.782-0.384,8.316-1.152c2.534-0.768,4.725-1.908,6.573-3.42c1.848-1.512,3.287-3.359,4.316-5.544
		c1.029-2.184,1.545-4.716,1.545-7.597c0-3.263-0.621-6.035-1.861-8.315c-1.241-2.279-2.812-4.128-4.713-5.544
		c-1.9-1.415-4.013-2.448-6.336-3.096c-2.324-0.648-4.541-0.973-6.652-0.973h-7.762v35.641H152.67z"/>
	<path class="st0" d="M193.012,131.046V78.558h34.849v7.992h-26.064v14.112h23.184v8.208h-23.184v13.968h27.072v8.208H193.012z"/>
	<path class="st0" d="M238.903,78.558h14.97c5.807,0,10.731,0.805,14.771,2.412c4.039,1.609,7.326,3.685,9.86,6.229
		s4.368,5.436,5.504,8.676c1.135,3.24,1.703,6.469,1.703,9.684c0,3.937-0.779,7.477-2.336,10.62
		c-1.559,3.145-3.657,5.821-6.297,8.028c-2.641,2.208-5.716,3.9-9.227,5.076c-3.513,1.177-7.221,1.764-11.128,1.764h-17.82V78.558z
		 M255.219,122.695c3.01,0,5.782-0.384,8.316-1.152c2.534-0.768,4.725-1.908,6.573-3.42c1.848-1.512,3.287-3.359,4.316-5.544
		c1.029-2.184,1.545-4.716,1.545-7.597c0-3.263-0.621-6.035-1.861-8.315c-1.241-2.279-2.812-4.128-4.713-5.544
		c-1.9-1.415-4.013-2.448-6.336-3.096c-2.324-0.648-4.541-0.973-6.652-0.973h-7.762v35.641H255.219z"/>
	<path class="st0" d="M295.56,78.558h8.856v52.488h-8.856V78.558z"/>
	<path class="st0" d="M356.759,127.159c-0.576,0.385-1.381,0.84-2.412,1.368c-1.033,0.528-2.257,1.02-3.672,1.476
		c-1.417,0.457-3.013,0.84-4.788,1.152c-1.776,0.312-3.672,0.468-5.688,0.468c-4.128,0-7.824-0.708-11.088-2.124
		c-3.265-1.415-6.024-3.323-8.279-5.725c-2.257-2.399-3.985-5.207-5.185-8.424c-1.2-3.215-1.8-6.599-1.8-10.151
		c0-3.936,0.72-7.571,2.16-10.908c1.439-3.336,3.396-6.216,5.868-8.641c2.472-2.423,5.352-4.308,8.64-5.651
		c3.287-1.344,6.804-2.017,10.548-2.017c1.44,0,2.892,0.108,4.356,0.324c1.463,0.216,2.844,0.493,4.14,0.828
		c1.296,0.337,2.436,0.72,3.42,1.152c0.983,0.432,1.692,0.889,2.124,1.368c-0.432,0.672-0.769,1.224-1.008,1.655
		c-0.241,0.433-0.493,0.877-0.756,1.332c-0.265,0.457-0.553,0.973-0.864,1.548c-0.313,0.576-0.756,1.368-1.332,2.376
		c-0.576-0.383-1.272-0.72-2.088-1.008c-0.816-0.288-1.668-0.515-2.556-0.684c-0.889-0.168-1.789-0.3-2.7-0.396
		c-0.912-0.096-1.729-0.144-2.448-0.144c-2.688,0-5.173,0.504-7.452,1.512c-2.28,1.008-4.248,2.34-5.904,3.996
		c-1.655,1.656-2.951,3.589-3.888,5.796c-0.936,2.209-1.404,4.489-1.404,6.84c0,2.305,0.443,4.549,1.332,6.732
		c0.888,2.185,2.136,4.116,3.744,5.796c1.608,1.681,3.516,3.036,5.725,4.068c2.207,1.032,4.655,1.548,7.344,1.548
		c1.535,0,3.024-0.155,4.464-0.468c1.44-0.313,2.711-0.659,3.816-1.044c1.104-0.384,2.003-0.768,2.699-1.152
		c0.695-0.384,1.068-0.648,1.116-0.792L356.759,127.159z"/>
	<path class="st0" d="M364.031,78.558h8.856v52.488h-8.856V78.558z"/>
	<path class="st0" d="M382.246,104.911c0-3.647,0.708-7.104,2.124-10.368c1.415-3.264,3.336-6.12,5.76-8.568
		c2.424-2.447,5.257-4.392,8.496-5.832c3.24-1.439,6.708-2.16,10.404-2.16c3.647,0,7.104,0.721,10.368,2.16
		c3.264,1.44,6.12,3.385,8.567,5.832c2.448,2.448,4.38,5.305,5.797,8.568c1.415,3.265,2.124,6.721,2.124,10.368
		c0,3.696-0.709,7.164-2.124,10.403c-1.417,3.24-3.349,6.073-5.797,8.496c-2.447,2.425-5.304,4.333-8.567,5.725
		c-3.265,1.393-6.721,2.088-10.368,2.088c-3.696,0-7.164-0.695-10.404-2.088c-3.239-1.392-6.072-3.3-8.496-5.725
		c-2.424-2.423-4.345-5.256-5.76-8.496C382.954,112.075,382.246,108.607,382.246,104.911z M391.103,104.911
		c0,2.545,0.468,4.932,1.403,7.164c0.937,2.231,2.232,4.176,3.889,5.832c1.656,1.655,3.575,2.964,5.76,3.924
		c2.184,0.961,4.547,1.439,7.092,1.439c2.448,0,4.764-0.479,6.948-1.439c2.184-0.96,4.079-2.269,5.688-3.924
		c1.608-1.656,2.881-3.601,3.816-5.832c0.937-2.232,1.404-4.619,1.404-7.164c0-2.544-0.48-4.933-1.44-7.164
		c-0.961-2.232-2.257-4.188-3.888-5.868c-1.633-1.68-3.54-2.999-5.724-3.96c-2.186-0.96-4.525-1.44-7.021-1.44
		c-2.496,0-4.836,0.48-7.02,1.44c-2.186,0.961-4.081,2.28-5.688,3.96c-1.608,1.681-2.88,3.636-3.816,5.868
		C391.57,99.978,391.103,102.367,391.103,104.911z"/>
	<path class="st0" d="M500.109,127.806c-1.681,1.057-3.708,1.957-6.084,2.7c-2.376,0.744-5.053,1.116-8.028,1.116
		c-3.888,0-7.416-0.685-10.584-2.052c-3.168-1.368-5.868-3.229-8.1-5.58c-2.232-2.352-3.961-5.088-5.185-8.208
		s-1.836-6.408-1.836-9.864c0-3.744,0.684-7.211,2.052-10.404c1.368-3.191,3.24-5.976,5.616-8.352s5.136-4.235,8.28-5.58
		c3.143-1.344,6.516-2.017,10.116-2.017c2.592,0,5.063,0.324,7.416,0.973c2.351,0.647,4.367,1.524,6.048,2.628
		c-0.288,0.432-0.504,0.78-0.648,1.044c-0.144,0.265-0.408,0.709-0.792,1.332c-1.681-1.056-3.563-1.848-5.651-2.376
		c-2.089-0.527-4.165-0.792-6.229-0.792c-3.217,0-6.24,0.612-9.072,1.836s-5.292,2.904-7.38,5.04
		c-2.088,2.137-3.744,4.62-4.968,7.452s-1.836,5.856-1.836,9.071c0,3.024,0.54,5.917,1.62,8.677c1.08,2.761,2.615,5.184,4.607,7.271
		c1.991,2.088,4.393,3.757,7.2,5.004c2.809,1.249,5.915,1.872,9.324,1.872c2.64,0,5.063-0.348,7.271-1.044
		c2.208-0.695,4.032-1.499,5.473-2.412L500.109,127.806z"/>
	<path class="st0" d="M508.317,105.63c0-3.6,0.685-6.972,2.053-10.116c1.367-3.143,3.215-5.903,5.544-8.279
		c2.327-2.377,5.063-4.248,8.208-5.616c3.143-1.368,6.516-2.053,10.115-2.053c3.601,0,6.984,0.685,10.152,2.053
		s5.94,3.239,8.316,5.616c2.376,2.376,4.248,5.137,5.615,8.279c1.368,3.145,2.053,6.517,2.053,10.116s-0.685,6.973-2.053,10.116
		c-1.367,3.145-3.239,5.893-5.615,8.244s-5.148,4.212-8.316,5.58c-3.168,1.367-6.552,2.052-10.152,2.052
		c-3.6,0-6.973-0.685-10.115-2.052c-3.145-1.368-5.881-3.229-8.208-5.58c-2.329-2.352-4.177-5.1-5.544-8.244
		C509.002,112.603,508.317,109.23,508.317,105.63z M511.27,105.703c0,3.168,0.6,6.155,1.8,8.964
		c1.199,2.808,2.845,5.256,4.933,7.344s4.511,3.744,7.271,4.968c2.76,1.225,5.725,1.836,8.893,1.836s6.167-0.611,9-1.836
		c2.831-1.224,5.303-2.88,7.416-4.968c2.111-2.088,3.779-4.536,5.004-7.344c1.224-2.809,1.836-5.819,1.836-9.036
		c0-3.168-0.612-6.167-1.836-9c-1.225-2.832-2.88-5.292-4.968-7.38c-2.089-2.088-4.536-3.744-7.345-4.968
		c-2.808-1.225-5.796-1.836-8.964-1.836s-6.156,0.611-8.964,1.836c-2.808,1.224-5.256,2.892-7.344,5.004s-3.733,4.571-4.933,7.38
		C511.869,99.474,511.27,102.487,511.27,105.703z"/>
	<path class="st0" d="M572.974,131.046V80.142h31.176v2.736h-28.152v21.168h25.272v2.736h-25.272v21.456h29.16v2.808H572.974z"/>
	<path class="st0" d="M617.685,131.046V80.142h3.023v48.024h28.225v2.88H617.685z"/>
	<path class="st0" d="M658.437,131.046V80.142h2.952v23.832h31.319V80.142h3.168l-0.216,50.904h-2.952v-24.264h-31.319v24.264
		H658.437z"/>
	<path class="st0" d="M708.331,105.63c0-3.6,0.685-6.972,2.053-10.116c1.367-3.143,3.215-5.903,5.544-8.279
		c2.327-2.377,5.063-4.248,8.208-5.616c3.143-1.368,6.516-2.053,10.115-2.053c3.601,0,6.984,0.685,10.152,2.053
		s5.94,3.239,8.316,5.616c2.376,2.376,4.248,5.137,5.615,8.279c1.368,3.145,2.053,6.517,2.053,10.116s-0.685,6.973-2.053,10.116
		c-1.367,3.145-3.239,5.893-5.615,8.244s-5.148,4.212-8.316,5.58c-3.168,1.367-6.552,2.052-10.152,2.052
		c-3.6,0-6.973-0.685-10.115-2.052c-3.145-1.368-5.881-3.229-8.208-5.58c-2.329-2.352-4.177-5.1-5.544-8.244
		C709.016,112.603,708.331,109.23,708.331,105.63z M711.283,105.703c0,3.168,0.6,6.155,1.8,8.964
		c1.199,2.808,2.845,5.256,4.933,7.344s4.511,3.744,7.271,4.968c2.76,1.225,5.725,1.836,8.893,1.836s6.167-0.611,9-1.836
		c2.831-1.224,5.303-2.88,7.416-4.968c2.111-2.088,3.779-4.536,5.004-7.344c1.224-2.809,1.836-5.819,1.836-9.036
		c0-3.168-0.612-6.167-1.836-9c-1.225-2.832-2.88-5.292-4.968-7.38c-2.089-2.088-4.536-3.744-7.345-4.968
		c-2.808-1.225-5.796-1.836-8.964-1.836s-6.156,0.611-8.964,1.836c-2.808,1.224-5.256,2.892-7.344,5.004s-3.733,4.571-4.933,7.38
		C711.883,99.474,711.283,102.487,711.283,105.703z"/>
</g>
<g>
	<g>
		<path class="st0" d="M92.845,57.933C92.2,27.264,80.283-0.306,70.742,0.002c-5.145,0.166-10.304,7.847-13.813,19.688
			C51.584,9.265,45.682,3.223,40.686,4.238c-9.355,1.9-11.991,27.81-5.887,57.87c0.627,3.087,1.325,6.092,2.077,9.007
			C19.949,73.449,5.378,85.875,1.175,103.497c-5.47,22.93,8.686,45.954,31.616,51.424c21.681,5.171,43.435-7.207,50.366-27.953
			c0.02-0.045,0.037-0.088,0.055-0.137C87.027,116.464,93.541,91.034,92.845,57.933z M58.316,123.758
			c-5.897,0-10.679-4.781-10.679-10.679s4.781-10.679,10.679-10.679c5.898,0,10.679,4.781,10.679,10.679
			S64.215,123.758,58.316,123.758z M78.549,49.127c-2.579,21.936-9.526,39.131-15.518,38.405
			c-5.989-0.725-8.756-19.093-6.176-41.029c2.579-21.936,9.527-39.13,15.519-38.406C78.362,8.823,81.128,27.192,78.549,49.127z"/>
	</g>
</g>
<g>
</g>
<g>
</g>
<g>
</g>
<g>
</g>
<g>
</g>
<g>
</g>
</svg>
