<svg width="351" height="73" viewBox="0 0 351 73" fill="none" xmlns="http://www.w3.org/2000/svg">
<g clip-path="url(#clip0_2:6)">
<path d="M62.9419 36.739H69.8521C72.5327 36.739 74.8056 37.1155 76.6705 37.867C78.535 38.6195 80.0523 39.5903 81.222 40.7801C82.3917 41.9698 83.2383 43.3223 83.7626 44.8376C84.2866 46.3528 84.5488 47.8629 84.5488 49.3665C84.5488 51.2077 84.1892 52.8632 83.4705 54.3331C82.7508 55.8039 81.7824 57.0554 80.5637 58.0875C79.3446 59.1201 77.9252 59.9114 76.3045 60.4614C74.6828 61.0118 72.9712 61.2864 71.1677 61.2864H62.9419V36.739V36.739ZM70.4735 57.3804C71.8629 57.3804 73.1425 57.2008 74.3122 56.8417C75.4819 56.4825 76.4933 55.9493 77.3463 55.2422C78.1994 54.5351 78.8636 53.6713 79.3386 52.6495C79.8136 51.6281 80.0518 50.444 80.0518 49.0966C80.0518 47.5706 79.7651 46.2742 79.1927 45.208C78.6199 44.1422 77.8947 43.2774 77.0172 42.6152C76.1401 41.9535 75.1648 41.4704 74.0924 41.1673C73.0197 40.8643 71.9963 40.7123 71.0218 40.7123H67.4388V57.3804H70.4735Z" fill="#100F0D"/>
<path d="M89.0956 61.2859V36.739H105.182V40.4766H93.1508V47.0763H103.853V50.9149H93.1508V57.4473H105.647V61.2859H89.0956V61.2859Z" fill="#100F0D"/>
<path d="M110.279 36.739H117.189C119.87 36.739 122.143 37.1155 124.008 37.867C125.872 38.6195 127.39 39.5903 128.559 40.7801C129.729 41.9698 130.576 43.3223 131.1 44.8376C131.624 46.3528 131.886 47.8629 131.886 49.3665C131.886 51.2077 131.526 52.8632 130.808 54.3331C130.088 55.8039 129.12 57.0554 127.901 58.0875C126.682 59.1201 125.262 59.9114 123.642 60.4614C122.02 61.0118 120.308 61.2864 118.505 61.2864H110.279V36.739V36.739ZM117.811 57.3804C119.2 57.3804 120.48 57.2008 121.649 56.8417C122.819 56.4825 123.831 55.9493 124.684 55.2422C125.537 54.5351 126.201 53.6713 126.676 52.6495C127.151 51.6281 127.389 50.444 127.389 49.0966C127.389 47.5706 127.102 46.2742 126.53 45.208C125.957 44.1422 125.232 43.2774 124.354 42.6152C123.477 41.9535 122.502 41.4704 121.43 41.1673C120.357 40.8643 119.334 40.7123 118.359 40.7123H114.776V57.3804H117.811Z" fill="#100F0D"/>
<path d="M136.432 36.739H140.52V61.2859H136.432V36.739Z" fill="#100F0D"/>
<path d="M164.682 59.4681C164.416 59.6481 164.045 59.8609 163.569 60.1078C163.092 60.3548 162.527 60.5849 161.874 60.7981C161.22 61.0118 160.483 61.191 159.664 61.3369C158.844 61.4828 157.969 61.5557 157.038 61.5557C155.133 61.5557 153.426 61.2246 151.92 60.5624C150.413 59.9007 149.139 59.0084 148.098 57.885C147.056 56.7631 146.259 55.4499 145.705 53.9454C145.151 52.4418 144.874 50.8593 144.874 49.1981C144.874 47.3574 145.206 45.6574 145.871 44.0968C146.535 42.5367 147.438 41.1898 148.58 40.0557C149.721 38.9225 151.05 38.041 152.568 37.4129C154.085 36.7843 155.709 36.4696 157.437 36.4696C158.102 36.4696 158.772 36.5201 159.448 36.6211C160.123 36.7221 160.76 36.8517 161.359 37.0084C161.957 37.166 162.483 37.3451 162.937 37.5471C163.391 37.7491 163.718 37.9629 163.918 38.1869C163.718 38.5011 163.563 38.7593 163.453 38.9609C163.341 39.1634 163.225 39.371 163.104 39.5838C162.981 39.7975 162.848 40.0388 162.705 40.3078C162.56 40.5771 162.356 40.9475 162.09 41.4189C161.824 41.2398 161.503 41.0822 161.126 40.9475C160.749 40.8128 160.356 40.7067 159.946 40.6276C159.536 40.5491 159.12 40.4873 158.7 40.4424C158.279 40.3975 157.902 40.3751 157.57 40.3751C156.329 40.3751 155.182 40.6108 154.13 41.0822C153.077 41.5536 152.169 42.1765 151.405 42.951C150.641 43.7255 150.042 44.6295 149.61 45.6616C149.178 46.6947 148.962 47.761 148.962 48.8604C148.962 49.9384 149.166 50.9879 149.577 52.0088C149.987 53.0306 150.563 53.9337 151.305 54.7194C152.047 55.5055 152.928 56.1392 153.948 56.6219C154.966 57.1045 156.096 57.3458 157.338 57.3458C158.046 57.3458 158.734 57.2733 159.398 57.1269C160.063 56.9806 160.65 56.8187 161.16 56.6387C161.669 56.4591 162.084 56.2795 162.406 56.0999C162.726 55.9204 162.899 55.7969 162.921 55.7295L164.682 59.4681Z" fill="#100F0D"/>
<path d="M168.039 36.739H172.127V61.2859H168.039V36.739Z" fill="#100F0D"/>
<path d="M176.447 49.0634C176.447 47.3578 176.774 45.7411 177.428 44.2146C178.081 42.6882 178.968 41.3525 180.087 40.2077C181.205 39.0633 182.513 38.1537 184.008 37.4802C185.504 36.8072 187.105 36.4701 188.811 36.4701C190.494 36.4701 192.09 36.8072 193.597 37.4802C195.104 38.1537 196.422 39.0633 197.551 40.2077C198.681 41.3525 199.573 42.6886 200.227 44.2146C200.88 45.7416 201.208 47.3578 201.208 49.0634C201.208 50.7919 200.88 52.4138 200.227 53.9285C199.573 55.4438 198.681 56.7687 197.551 57.9018C196.422 59.0359 195.103 59.9282 193.597 60.5792C192.09 61.2307 190.494 61.5557 188.811 61.5557C187.105 61.5557 185.504 61.2307 184.008 60.5792C182.513 59.9282 181.205 59.0359 180.087 57.9018C178.968 56.7687 178.081 55.4438 177.428 53.9285C176.774 52.4138 176.447 50.7919 176.447 49.0634ZM180.536 49.0634C180.536 50.2536 180.752 51.3699 181.183 52.4138C181.616 53.4571 182.214 54.3667 182.979 55.1412C183.743 55.9152 184.629 56.5274 185.637 56.9763C186.645 57.4258 187.736 57.6493 188.911 57.6493C190.041 57.6493 191.11 57.4253 192.118 56.9763C193.126 56.5274 194.001 55.9152 194.744 55.1412C195.486 54.3667 196.074 53.4571 196.505 52.4138C196.938 51.3699 197.153 50.2536 197.153 49.0634C197.153 47.8737 196.932 46.7564 196.489 45.713C196.045 44.6692 195.447 43.7544 194.694 42.9688C193.94 42.1831 193.06 41.5662 192.052 41.1168C191.043 40.6678 189.963 40.4434 188.811 40.4434C187.659 40.4434 186.579 40.6678 185.57 41.1168C184.561 41.5662 183.687 42.1831 182.945 42.9688C182.203 43.7549 181.615 44.6692 181.183 45.713C180.751 46.7564 180.536 47.8737 180.536 49.0634Z" fill="#100F0D"/>
<path d="M230.854 59.7706C230.078 60.265 229.142 60.6859 228.045 61.0333C226.948 61.3813 225.713 61.5553 224.339 61.5553C222.545 61.5553 220.916 61.2349 219.454 60.5956C217.991 59.9558 216.745 59.0855 215.715 57.986C214.684 56.8861 213.886 55.6065 213.321 54.1474C212.756 52.6883 212.474 51.1506 212.474 49.5344C212.474 47.7834 212.789 46.162 213.421 44.6687C214.052 43.1764 214.917 41.874 216.013 40.7628C217.11 39.6516 218.384 38.7822 219.835 38.1532C221.286 37.5247 222.843 37.2099 224.505 37.2099C225.702 37.2099 226.842 37.3615 227.928 37.665C229.014 37.9676 229.944 38.3777 230.72 38.894C230.587 39.096 230.487 39.2588 230.421 39.3822C230.355 39.5062 230.233 39.7138 230.055 40.0052C229.279 39.5113 228.411 39.1409 227.447 38.894C226.483 38.6475 225.524 38.5236 224.572 38.5236C223.087 38.5236 221.691 38.8098 220.384 39.3822C219.077 39.9547 217.941 40.7403 216.977 41.7393C216.013 42.7387 215.249 43.8999 214.684 45.2243C214.119 46.5488 213.836 47.963 213.836 49.4665C213.836 50.8808 214.086 52.2337 214.584 53.5245C215.083 54.8157 215.791 55.9489 216.711 56.9249C217.63 57.9014 218.739 58.6819 220.034 59.2651C221.331 59.8492 222.765 60.1406 224.338 60.1406C225.557 60.1406 226.676 59.9778 227.695 59.6523C228.714 59.3273 229.556 58.9513 230.221 58.5243L230.854 59.7706Z" fill="#100F0D"/>
<path d="M234.642 49.3997C234.642 47.7161 234.959 46.1391 235.59 44.6688C236.221 43.1989 237.074 41.9081 238.149 40.797C239.223 39.6853 240.486 38.8103 241.938 38.1705C243.389 37.5308 244.946 37.2104 246.607 37.2104C248.269 37.2104 249.831 37.5308 251.293 38.1705C252.756 38.8103 254.035 39.6853 255.132 40.797C256.229 41.9081 257.093 43.1994 257.724 44.6688C258.356 46.1396 258.672 47.7166 258.672 49.3997C258.672 51.0828 258.356 52.6607 257.724 54.1306C257.093 55.6014 256.229 56.8866 255.132 57.9861C254.035 59.0855 252.756 59.9559 251.293 60.5956C249.831 61.2349 248.269 61.5553 246.607 61.5553C244.945 61.5553 243.388 61.2349 241.938 60.5956C240.486 59.9559 239.223 59.0855 238.149 57.9861C237.074 56.8861 236.221 55.601 235.59 54.1306C234.959 52.6607 234.642 51.0833 234.642 49.3997ZM236.005 49.4338C236.005 50.9154 236.282 52.3123 236.836 53.626C237.39 54.9392 238.15 56.0841 239.113 57.0605C240.077 58.037 241.196 58.8115 242.47 59.3839C243.744 59.9568 245.113 60.2425 246.575 60.2425C248.037 60.2425 249.422 59.9568 250.729 59.3839C252.036 58.8115 253.177 58.037 254.153 57.0605C255.127 56.0841 255.897 54.9392 256.463 53.626C257.028 52.3123 257.31 50.9046 257.31 49.4002C257.31 47.9186 257.028 46.5161 256.463 45.1912C255.897 43.8667 255.133 42.7163 254.169 41.7398C253.205 40.7633 252.075 39.9888 250.779 39.4164C249.483 38.8435 248.103 38.5578 246.641 38.5578C245.179 38.5578 243.799 38.8435 242.503 39.4164C241.207 39.9888 240.077 40.7689 239.113 41.7566C238.149 42.7443 237.39 43.8943 236.836 45.208C236.282 46.5207 236.005 47.9298 236.005 49.4338Z" fill="#100F0D"/>
<path d="M264.488 61.2859V37.4798H278.88V38.7593H265.884V48.6589H277.55V49.9384H265.884V59.9727H279.345V61.2859H264.488Z" fill="#100F0D"/>
<path d="M285.127 61.2859V37.4798H286.523V59.939H299.552V61.2859H285.127Z" fill="#100F0D"/>
<path d="M303.939 61.2859V37.4798H305.301V48.6252H319.758V37.4798H321.221L321.121 61.2859H319.758V49.9384H305.301V61.2859H303.939Z" fill="#100F0D"/>
<path d="M326.97 49.3997C326.97 47.7161 327.286 46.1391 327.918 44.6688C328.549 43.1989 329.402 41.9081 330.477 40.797C331.551 39.6853 332.814 38.8103 334.266 38.1705C335.717 37.5308 337.274 37.2104 338.935 37.2104C340.597 37.2104 342.159 37.5308 343.621 38.1705C345.084 38.8103 346.363 39.6853 347.46 40.797C348.557 41.9081 349.421 43.1994 350.052 44.6688C350.683 46.1396 350.999 47.7166 350.999 49.3997C350.999 51.0828 350.683 52.6607 350.052 54.1306C349.421 55.6014 348.557 56.8866 347.46 57.9861C346.363 59.0855 345.084 59.9559 343.621 60.5956C342.159 61.2349 340.597 61.5553 338.935 61.5553C337.273 61.5553 335.716 61.2349 334.266 60.5956C332.814 59.9559 331.551 59.0855 330.477 57.9861C329.402 56.8861 328.549 55.601 327.918 54.1306C327.286 52.6607 326.97 51.0833 326.97 49.3997ZM328.333 49.4338C328.333 50.9154 328.61 52.3123 329.164 53.626C329.717 54.9392 330.477 56.0841 331.441 57.0605C332.405 58.037 333.523 58.8115 334.797 59.3839C336.071 59.9568 337.44 60.2425 338.902 60.2425C340.365 60.2425 341.749 59.9568 343.057 59.3839C344.363 58.8115 345.505 58.037 346.48 57.0605C347.454 56.0841 348.224 54.9392 348.79 53.626C349.355 52.3123 349.637 50.9046 349.637 49.4002C349.637 47.9186 349.355 46.5161 348.79 45.1912C348.224 43.8667 347.46 42.7163 346.497 41.7398C345.532 40.7633 344.403 39.9888 343.106 39.4164C341.81 38.8435 340.431 38.5578 338.968 38.5578C337.506 38.5578 336.127 38.8435 334.83 39.4164C333.534 39.9888 332.404 40.7689 331.44 41.7566C330.477 42.7443 329.717 43.8943 329.163 45.208C328.61 46.5207 328.333 47.9298 328.333 49.4338Z" fill="#100F0D"/>
<path d="M42.8581 27.0931C42.5603 12.7502 37.0594 -0.143395 32.6552 0.000646186C30.2802 0.0782789 27.8988 3.67043 26.279 9.20807C23.8117 4.33264 21.0873 1.507 18.7811 1.98168C14.4628 2.87025 13.246 14.9875 16.0636 29.0456C16.3531 30.4893 16.6753 31.8946 17.0224 33.2578C9.20879 34.3494 2.48273 40.1606 0.542596 48.4018C-1.98239 59.1254 4.55211 69.893 15.1367 72.4511C25.1448 74.8694 35.1866 69.0807 38.386 59.3784C38.3952 59.3574 38.4031 59.3373 38.4114 59.3144C40.1724 54.4661 43.1793 42.5733 42.8581 27.0931ZM26.9192 57.8772C24.1972 57.8772 21.9898 55.6413 21.9898 52.883C21.9898 50.1247 24.1967 47.8888 26.9192 47.8888C29.6418 47.8888 31.8487 50.1247 31.8487 52.883C31.8487 55.6413 29.6423 57.8772 26.9192 57.8772ZM36.2589 22.9748C35.0684 33.2335 31.8617 41.2751 29.0957 40.9355C26.3312 40.5965 25.0539 32.0064 26.2448 21.7476C27.4353 11.4889 30.6426 3.44782 33.4085 3.78641C36.1726 4.12594 37.4494 12.7165 36.2589 22.9748Z" fill="#100F0D"/>
</g>
<defs>
<clipPath id="clip0_2:6">
<rect width="351" height="73" fill="white"/>
</clipPath>
</defs>
</svg>
