<svg version="1.1" id="Layer_1" xmlns="http://www.w3.org/2000/svg" x="0" y="0" viewBox="0 0 760.388 156.094" xml:space="preserve"><path class="st0" d="M136.354 78.558h14.97c5.807 0 10.731.805 14.771 2.412 4.039 1.609 7.326 3.685 9.86 6.229s4.368 5.436 5.504 8.676c1.135 3.24 1.703 6.469 1.703 9.684 0 3.937-.779 7.477-2.336 10.62-1.559 3.145-3.657 5.821-6.297 8.028-2.641 2.208-5.716 3.9-9.227 5.076-3.513 1.177-7.221 1.764-11.128 1.764h-17.82V78.558zm16.316 44.137c3.01 0 5.782-.384 8.316-1.152 2.534-.768 4.725-1.908 6.573-3.42a15.727 15.727 0 0 0 4.316-5.544c1.029-2.184 1.545-4.716 1.545-7.597 0-3.263-.621-6.035-1.861-8.315-1.241-2.279-2.812-4.128-4.713-5.544a19.112 19.112 0 0 0-6.336-3.096c-2.324-.648-4.541-.973-6.652-.973h-7.762v35.641h6.574zM193.012 131.046V78.558h34.849v7.992h-26.064v14.112h23.184v8.208h-23.184v13.968h27.072v8.208h-35.857zM238.903 78.558h14.97c5.807 0 10.731.805 14.771 2.412 4.039 1.609 7.326 3.685 9.86 6.229s4.368 5.436 5.504 8.676c1.135 3.24 1.703 6.469 1.703 9.684 0 3.937-.779 7.477-2.336 10.62-1.559 3.145-3.657 5.821-6.297 8.028-2.641 2.208-5.716 3.9-9.227 5.076-3.513 1.177-7.221 1.764-11.128 1.764h-17.82V78.558zm16.316 44.137c3.01 0 5.782-.384 8.316-1.152 2.534-.768 4.725-1.908 6.573-3.42a15.727 15.727 0 0 0 4.316-5.544c1.029-2.184 1.545-4.716 1.545-7.597 0-3.263-.621-6.035-1.861-8.315-1.241-2.279-2.812-4.128-4.713-5.544a19.112 19.112 0 0 0-6.336-3.096c-2.324-.648-4.541-.973-6.652-.973h-7.762v35.641h6.574zM295.56 78.558h8.856v52.488h-8.856V78.558zM356.759 127.159c-.576.385-1.381.84-2.412 1.368-1.033.528-2.257 1.02-3.672 1.476-1.417.457-3.013.84-4.788 1.152-1.776.312-3.672.468-5.688.468-4.128 0-7.824-.708-11.088-2.124-3.265-1.415-6.024-3.323-8.279-5.725-2.257-2.399-3.985-5.207-5.185-8.424-1.2-3.215-1.8-6.599-1.8-10.151 0-3.936.72-7.571 2.16-10.908 1.439-3.336 3.396-6.216 5.868-8.641 2.472-2.423 5.352-4.308 8.64-5.651 3.287-1.344 6.804-2.017 10.548-2.017 1.44 0 2.892.108 4.356.324 1.463.216 2.844.493 4.14.828 1.296.337 2.436.72 3.42 1.152.983.432 1.692.889 2.124 1.368a31.274 31.274 0 0 0-1.008 1.655c-.241.433-.493.877-.756 1.332-.265.457-.553.973-.864 1.548a133.56 133.56 0 0 1-1.332 2.376c-.576-.383-1.272-.72-2.088-1.008a17.495 17.495 0 0 0-2.556-.684c-.889-.168-1.789-.3-2.7-.396a23.65 23.65 0 0 0-2.448-.144c-2.688 0-5.173.504-7.452 1.512-2.28 1.008-4.248 2.34-5.904 3.996a18.145 18.145 0 0 0-3.888 5.796 17.367 17.367 0 0 0-1.404 6.84c0 2.305.443 4.549 1.332 6.732a18.224 18.224 0 0 0 3.744 5.796c1.608 1.681 3.516 3.036 5.725 4.068 2.207 1.032 4.655 1.548 7.344 1.548 1.535 0 3.024-.155 4.464-.468 1.44-.313 2.711-.659 3.816-1.044 1.104-.384 2.003-.768 2.699-1.152.695-.384 1.068-.648 1.116-.792l3.816 7.994zM364.031 78.558h8.856v52.488h-8.856V78.558zM382.246 104.911c0-3.647.708-7.104 2.124-10.368 1.415-3.264 3.336-6.12 5.76-8.568 2.424-2.447 5.257-4.392 8.496-5.832 3.24-1.439 6.708-2.16 10.404-2.16 3.647 0 7.104.721 10.368 2.16 3.264 1.44 6.12 3.385 8.567 5.832 2.448 2.448 4.38 5.305 5.797 8.568 1.415 3.265 2.124 6.721 2.124 10.368 0 3.696-.709 7.164-2.124 10.403-1.417 3.24-3.349 6.073-5.797 8.496-2.447 2.425-5.304 4.333-8.567 5.725-3.265 1.393-6.721 2.088-10.368 2.088-3.696 0-7.164-.695-10.404-2.088-3.239-1.392-6.072-3.3-8.496-5.725-2.424-2.423-4.345-5.256-5.76-8.496-1.416-3.239-2.124-6.707-2.124-10.403zm8.857 0c0 2.545.468 4.932 1.403 7.164.937 2.231 2.232 4.176 3.889 5.832a18.727 18.727 0 0 0 5.76 3.924c2.184.961 4.547 1.439 7.092 1.439 2.448 0 4.764-.479 6.948-1.439 2.184-.96 4.079-2.269 5.688-3.924 1.608-1.656 2.881-3.601 3.816-5.832.937-2.232 1.404-4.619 1.404-7.164 0-2.544-.48-4.933-1.44-7.164-.961-2.232-2.257-4.188-3.888-5.868a18.017 18.017 0 0 0-5.724-3.96c-2.186-.96-4.525-1.44-7.021-1.44-2.496 0-4.836.48-7.02 1.44a17.559 17.559 0 0 0-5.688 3.96c-1.608 1.681-2.88 3.636-3.816 5.868-.936 2.231-1.403 4.62-1.403 7.164zM500.109 127.806c-1.681 1.057-3.708 1.957-6.084 2.7-2.376.744-5.053 1.116-8.028 1.116-3.888 0-7.416-.685-10.584-2.052-3.168-1.368-5.868-3.229-8.1-5.58-2.232-2.352-3.961-5.088-5.185-8.208s-1.836-6.408-1.836-9.864c0-3.744.684-7.211 2.052-10.404 1.368-3.191 3.24-5.976 5.616-8.352s5.136-4.235 8.28-5.58c3.143-1.344 6.516-2.017 10.116-2.017 2.592 0 5.063.324 7.416.973 2.351.647 4.367 1.524 6.048 2.628-.288.432-.504.78-.648 1.044-.144.265-.408.709-.792 1.332-1.681-1.056-3.563-1.848-5.651-2.376a25.386 25.386 0 0 0-6.229-.792c-3.217 0-6.24.612-9.072 1.836s-5.292 2.904-7.38 5.04c-2.088 2.137-3.744 4.62-4.968 7.452s-1.836 5.856-1.836 9.071c0 3.024.54 5.917 1.62 8.677 1.08 2.761 2.615 5.184 4.607 7.271 1.991 2.088 4.393 3.757 7.2 5.004 2.809 1.249 5.915 1.872 9.324 1.872 2.64 0 5.063-.348 7.271-1.044 2.208-.695 4.032-1.499 5.473-2.412l1.37 2.665zM508.317 105.63c0-3.6.685-6.972 2.053-10.116 1.367-3.143 3.215-5.903 5.544-8.279 2.327-2.377 5.063-4.248 8.208-5.616 3.143-1.368 6.516-2.053 10.115-2.053 3.601 0 6.984.685 10.152 2.053s5.94 3.239 8.316 5.616c2.376 2.376 4.248 5.137 5.615 8.279 1.368 3.145 2.053 6.517 2.053 10.116s-.685 6.973-2.053 10.116c-1.367 3.145-3.239 5.893-5.615 8.244s-5.148 4.212-8.316 5.58c-3.168 1.367-6.552 2.052-10.152 2.052-3.6 0-6.973-.685-10.115-2.052-3.145-1.368-5.881-3.229-8.208-5.58-2.329-2.352-4.177-5.1-5.544-8.244-1.368-3.143-2.053-6.516-2.053-10.116zm2.953.073c0 3.168.6 6.155 1.8 8.964 1.199 2.808 2.845 5.256 4.933 7.344s4.511 3.744 7.271 4.968c2.76 1.225 5.725 1.836 8.893 1.836s6.167-.611 9-1.836c2.831-1.224 5.303-2.88 7.416-4.968 2.111-2.088 3.779-4.536 5.004-7.344 1.224-2.809 1.836-5.819 1.836-9.036 0-3.168-.612-6.167-1.836-9-1.225-2.832-2.88-5.292-4.968-7.38-2.089-2.088-4.536-3.744-7.345-4.968-2.808-1.225-5.796-1.836-8.964-1.836s-6.156.611-8.964 1.836c-2.808 1.224-5.256 2.892-7.344 5.004s-3.733 4.571-4.933 7.38c-1.2 2.807-1.799 5.82-1.799 9.036zM572.974 131.046V80.142h31.176v2.736h-28.152v21.168h25.272v2.736h-25.272v21.456h29.16v2.808h-32.184zM617.685 131.046V80.142h3.023v48.024h28.225v2.88h-31.248zM658.437 131.046V80.142h2.952v23.832h31.319V80.142h3.168l-.216 50.904h-2.952v-24.264h-31.319v24.264h-2.952zM708.331 105.63c0-3.6.685-6.972 2.053-10.116 1.367-3.143 3.215-5.903 5.544-8.279 2.327-2.377 5.063-4.248 8.208-5.616 3.143-1.368 6.516-2.053 10.115-2.053 3.601 0 6.984.685 10.152 2.053s5.94 3.239 8.316 5.616c2.376 2.376 4.248 5.137 5.615 8.279 1.368 3.145 2.053 6.517 2.053 10.116s-.685 6.973-2.053 10.116c-1.367 3.145-3.239 5.893-5.615 8.244s-5.148 4.212-8.316 5.58c-3.168 1.367-6.552 2.052-10.152 2.052-3.6 0-6.973-.685-10.115-2.052-3.145-1.368-5.881-3.229-8.208-5.58-2.329-2.352-4.177-5.1-5.544-8.244-1.368-3.143-2.053-6.516-2.053-10.116zm2.952.073c0 3.168.6 6.155 1.8 8.964 1.199 2.808 2.845 5.256 4.933 7.344s4.511 3.744 7.271 4.968c2.76 1.225 5.725 1.836 8.893 1.836s6.167-.611 9-1.836c2.831-1.224 5.303-2.88 7.416-4.968 2.111-2.088 3.779-4.536 5.004-7.344 1.224-2.809 1.836-5.819 1.836-9.036 0-3.168-.612-6.167-1.836-9-1.225-2.832-2.88-5.292-4.968-7.38-2.089-2.088-4.536-3.744-7.345-4.968-2.808-1.225-5.796-1.836-8.964-1.836s-6.156.611-8.964 1.836c-2.808 1.224-5.256 2.892-7.344 5.004s-3.733 4.571-4.933 7.38c-1.199 2.807-1.799 5.82-1.799 9.036z"/><g><path class="st0" d="M92.845 57.933C92.2 27.264 80.283-.306 70.742.002 65.597.168 60.438 7.849 56.929 19.69 51.584 9.265 45.682 3.223 40.686 4.238c-9.355 1.9-11.991 27.81-5.887 57.87a177.506 177.506 0 0 0 2.077 9.007c-16.927 2.334-31.498 14.76-35.701 32.382-5.47 22.93 8.686 45.954 31.616 51.424 21.681 5.171 43.435-7.207 50.366-27.953.02-.045.037-.088.055-.137 3.815-10.367 10.329-35.797 9.633-68.898zm-34.529 65.825c-5.897 0-10.679-4.781-10.679-10.679S52.418 102.4 58.316 102.4c5.898 0 10.679 4.781 10.679 10.679s-4.78 10.679-10.679 10.679zm20.233-74.631c-2.579 21.936-9.526 39.131-15.518 38.405-5.989-.725-8.756-19.093-6.176-41.029 2.579-21.936 9.527-39.13 15.519-38.406 5.988.726 8.754 19.095 6.175 41.03z"/></g></svg>